<svg xmlns="http://www.w3.org/2000/svg" xmlns:xlink="http://www.w3.org/1999/xlink"><symbol id="icon-facebook"><path d="M11.548.005L8.67 0C5.436 0 3.347 2.318 3.347 5.906V8.63H.453c-.25 0-.453.219-.453.49v3.945c0 .27.203.49.453.49h2.894v9.956c0 .27.202.489.452.489h3.776c.25 0 .452-.22.452-.49v-9.956h3.384c.25 0 .453-.219.453-.489l.001-3.946a.51.51 0 00-.132-.346.436.436 0 00-.32-.143H8.026V6.32c0-1.11.245-1.673 1.582-1.673h1.939c.25 0 .452-.22.452-.49V.494c0-.27-.202-.489-.452-.489z"/></symbol><symbol id="icon-instagram" viewBox="0 0 24 24"><path d="M17.503 0H6.497A6.504 6.504 0 000 6.497v11.007A6.504 6.504 0 006.497 24h11.007A6.504 6.504 0 0024 17.504V6.497A6.504 6.504 0 0017.503 0zM12 18.562A6.57 6.57 0 015.438 12 6.57 6.57 0 0112 5.438 6.57 6.57 0 0118.562 12 6.57 6.57 0 0112 18.562zm6.72-11.577c-1.07 0-1.94-.87-1.94-1.939 0-1.07.87-1.94 1.94-1.94 1.069 0 1.939.87 1.939 1.94 0 1.07-.87 1.94-1.94 1.94z"/><path d="M12 6.844A5.161 5.161 0 006.845 12 5.161 5.161 0 0012 17.155 5.161 5.161 0 0017.155 12 5.161 5.161 0 0012 6.844zm6.719-2.33a.533.533 0 10.001 1.066.533.533 0 00-.001-1.066z"/></symbol><symbol id="icon-play"><path d="M13 7.5L.25 14.861V.14L13 7.5z"/></symbol><symbol id="icon-rouble" viewBox="0 0 30 42"><path fill-rule="evenodd" clip-rule="evenodd" d="M0 17h6v6H0v-6z"/><path fill-rule="evenodd" clip-rule="evenodd" d="M3.659 28.321V18h6v10.321H21v6H9.659V42h-6v-7.679H0v-6h3.659z"/><path fill-rule="evenodd" clip-rule="evenodd" d="M18.5 6H10v11h8.5a5.5 5.5 0 100-11zM4 0v23h14.5C24.851 23 30 17.851 30 11.5S24.851 0 18.5 0H4z"/></symbol><symbol id="icon-slider-toggle" viewBox="0 0 18 34"><path d="M17 1L1 17l16 16" stroke="#AFAFAF"/></symbol><symbol id="icon-vk" viewBox="0 0 32 17"><path fill-rule="evenodd" clip-rule="evenodd" d="M27.54 10.81c1.062.972 2.182 1.888 3.134 2.959.421.476.82.967 1.124 1.519.431.785.04 1.65-.71 1.696l-4.661-.002c-1.203.094-2.162-.36-2.968-1.132-.646-.618-1.244-1.274-1.864-1.912a4.338 4.338 0 00-.84-.7c-.636-.388-1.188-.27-1.552.354-.37.633-.454 1.335-.49 2.041-.05 1.03-.382 1.302-1.485 1.349-2.356.104-4.593-.23-6.67-1.346-1.832-.984-3.253-2.373-4.49-3.945C3.663 8.629 1.819 5.264.163 1.806-.211 1.026.062.608.977.593 2.498.566 4.02.568 5.541.591c.618.009 1.028.342 1.266.89.823 1.9 1.83 3.706 3.094 5.381.336.446.68.892 1.168 1.206.54.347.952.232 1.207-.333.161-.359.232-.745.268-1.129.12-1.32.136-2.64-.075-3.956-.13-.821-.622-1.353-1.496-1.508-.445-.08-.379-.235-.163-.474.375-.412.727-.668 1.43-.668h5.268c.83.154 1.014.503 1.127 1.287l.005 5.494c-.01.303.161 1.203.743 1.404.466.143.773-.207 1.052-.484 1.262-1.257 2.162-2.742 2.966-4.28.357-.677.664-1.379.962-2.08.22-.521.566-.778 1.19-.766l5.072.004c.15 0 .302.002.448.025.854.137 1.088.482.824 1.265-.415 1.23-1.225 2.253-2.016 3.282-.845 1.099-1.75 2.16-2.588 3.264-.77 1.01-.71 1.518.248 2.394z"/></symbol></svg>